<svg width="100" height="100" viewBox="0 0 24 24" fill="none" xmlns="http://www.w3.org/2000/svg">
  <path d="M19.43 12.98C19.46 12.66 19.5 12.33 19.5 12C19.5 11.67 19.46 11.34 19.43 11.02L21.54 9.64C21.7 9.54 21.75 9.32 21.67 9.14L19.93 5.26C19.85 5.08 19.66 4.98 19.47 5.03L16.77 5.82C16.31 5.34 15.8 4.92 15.23 4.57L15 1.89C15 1.7 14.85 1.54 14.66 1.5H9.34C9.15 1.5 9 1.66 9 1.85L8.77 4.57C8.2 4.92 7.69 5.34 7.23 5.82L4.53 5.03C4.34 4.98 4.15 5.08 4.07 5.26L2.33 9.14C2.25 9.32 2.3 9.54 2.46 9.64L4.57 11.02C4.54 11.34 4.5 11.67 4.5 12C4.5 12.33 4.54 12.66 4.57 12.98L2.46 14.36C2.3 14.46 2.25 14.68 2.33 14.86L4.07 18.74C4.15 18.92 4.34 19.02 4.53 18.97L7.23 18.18C7.69 18.66 8.2 19.08 8.77 19.43L9 22.11C9 22.3 9.15 22.46 9.34 22.5H14.66C14.85 22.5 15 22.34 15 22.15L15.23 19.43C15.8 19.08 16.31 18.66 16.77 18.18L19.47 18.97C19.66 19.02 19.85 18.92 19.93 18.74L21.67 14.86C21.75 14.68 21.7 14.46 21.54 14.36L19.43 12.98ZM12 15.5C10.07 15.5 8.5 13.93 8.5 12C8.5 10.07 10.07 8.5 12 8.5C13.93 8.5 15.5 10.07 15.5 12C15.5 13.93 13.93 15.5 12 15.5Z" fill="#72EDF2" stroke="#000000" stroke-width="0.5"/>
</svg>

